Coordinates
version=1
nRows=19
nColumns=24
inDegrees=yes

Units are S.I. units (second, meters, Newtons, ...)
Angles are in degrees.

endheader
time	pelvis_tilt	pelvis_list	pelvis_rotation	pelvis_tx	pelvis_ty	pelvis_tz	hip_flexion_r	hip_adduction_r	hip_rotation_r	knee_angle_r	ankle_angle_r	subtalar_angle_r	mtp_angle_r	hip_flexion_l	hip_adduction_l	hip_rotation_l	knee_angle_l	ankle_angle_l	subtalar_angle_l	mtp_angle_l	lumbar_extension	lumbar_bending	lumbar_rotation
      4.97000000	      8.13604480	      2.38951680	      6.14566060	     -0.60032849	      0.88900380	      0.18722219	     16.25864882	     -1.07333374	     -4.92535295	     -8.37326061	     14.50812992	      3.91987092	      0.00000000	    -33.38423014	      3.78861043	      9.25270819	     -8.69610377	      7.51442734	    -10.42725710	      0.00000000	    -27.70404618	      1.59093844	    -18.18276062
      4.98000000	      8.20266417	      2.15610083	      6.21633485	     -0.58254456	      0.88743244	      0.18733490	     17.06141610	     -0.88432273	     -5.25924304	    -11.77375082	     13.70655707	      3.49645392	      0.00000000	    -32.45441057	      3.30819333	      6.30167556	    -11.99399223	      7.41131220	     -6.72941483	      0.00000000	    -27.37135222	      2.16191563	    -18.66088126
      4.99000000	      8.19476889	      1.86098971	      6.29993839	     -0.56474812	      0.88600426	      0.18751518	     17.83303450	     -0.61935247	     -5.42303872	    -14.90130987	     12.97052490	      2.90877995	      0.00000000	    -31.22925793	      2.68928237	      3.96437031	    -15.52017386	      6.12362925	     -4.23428567	      0.00000000	    -26.96176545	      2.78262989	    -19.09773024
      5.00000000	      8.34875356	      1.41749539	      6.37923351	     -0.54712638	      0.88503506	      0.18774184	     18.32299227	     -0.17656671	     -5.69093251	    -17.73200706	     12.49548914	      2.40751485	      0.00000000	    -29.90924380	      1.86396760	      2.09334166	    -19.31492269	      3.93495762	     -2.59311882	      0.00000000	    -26.78714554	      3.57798840	    -19.36491022
      5.01000000	      8.56906161	      0.90154767	      6.46839177	     -0.52983963	      0.88442125	      0.18799544	     18.63722799	      0.35479214	     -6.01699312	    -20.32850452	     12.54159089	      2.06904917	      0.00000000	    -28.34801494	      0.93758573	      0.71319263	    -23.42147171	      0.96986530	     -1.61719639	      0.00000000	    -26.76174354	      4.44207808	    -19.52686777
      5.02000000	      8.78165336	      0.31459489	      6.57211756	     -0.51295912	      0.88402449	      0.18825429	     18.82860627	      0.96163142	     -6.42916345	    -22.69559316	     13.19482063	      1.97929246	      0.00000000	    -26.44480770	     -0.06179485	     -0.24680515	    -27.85885154	     -2.43562672	     -1.03370861	      0.00000000	    -26.79229284	      5.35629424	    -19.57908582
      5.03000000	      8.95911059	     -0.34268823	      6.71398967	     -0.49651925	      0.88378894	      0.18846456	     18.86977373	      1.63236528	     -6.95071055	    -24.77252171	     14.39893634	      2.18326989	      0.00000000	    -24.20355524	     -1.11523265	     -0.80625394	    -32.55403437	     -5.90895142	     -0.64860323	      0.00000000	    -26.83115838	      6.31892294	    -19.53379757
      5.04000000	      9.10432690	     -1.10310647	      6.91627920	     -0.48051044	      0.88373279	      0.18861860	     18.68788199	      2.41686291	     -7.53852918	    -26.43006153	     15.92865090	      2.54118551	      0.00000000	    -21.67609045	     -2.25888085	     -1.05004729	    -37.40902528	     -8.95292491	     -0.18661363	      0.00000000	    -26.85641822	      7.36446902	    -19.38611595
      5.05000000	      9.17405799	     -1.94346163	      7.18618596	     -0.46489327	      0.88386825	      0.18870406	     18.30447287	      3.28693180	     -8.18799938	    -27.60960712	     17.59738957	      3.00248091	      0.00000000	    -18.88813788	     -3.45761840	     -1.03001762	    -42.28468346	    -11.19245876	      0.45713348	      0.00000000	    -26.78880222	      8.45774864	    -19.20250008
      5.06000000	      9.20058016	     -2.85411434	      7.55577907	     -0.44959333	      0.88436627	      0.18863646	     17.65099224	      4.23859151	     -8.89144495	    -28.21979124	     19.19157173	      3.48218695	      0.00000000	    -15.95496056	     -4.66264362	     -0.67109995	    -47.01332202	    -12.40149659	      1.27596308	      0.00000000	    -26.63841658	      9.61311713	    -18.92196142
      5.07000000	      9.16370816	     -3.73215937	      7.99244241	     -0.43455742	      0.88528515	      0.18846138	     16.79505852	      5.15301625	     -9.66818114	    -28.34118708	     20.67990371	      4.02940488	      0.00000000	    -12.91507260	     -5.76844151	     -0.11026622	    -51.46433752	    -12.53196699	      2.22522839	      0.00000000	    -26.37356201	     10.69739798	    -18.68827769
      5.08000000	      9.10450641	     -4.51632378	      8.50552914	     -0.41971407	      0.88678487	      0.18812445	     15.69597737	      5.98314013	    -10.47591998	    -27.97960196	     21.94720824	      4.60790878	      0.00000000	     -9.87071702	     -6.67138285	      0.68386576	    -55.51388061	    -11.65082365	      3.23695607	      0.00000000	    -26.03493254	     11.66673895	    -18.47029419
      5.09000000	      9.01210197	     -5.12650546	      9.05440475	     -0.40502404	      0.88885603	      0.18767708	     14.42002864	      6.64912977	    -11.29656488	    -27.25258867	     22.98283030	      5.20759918	      0.00000000	     -6.85112710	     -7.28531971	      1.58984536	    -59.09352209	     -9.97783384	      4.24740421	      0.00000000	    -25.62680669	     12.41913708	    -18.30675077
      5.10000000	      8.99021080	     -5.50527092	      9.60384171	     -0.39044570	      0.89161479	      0.18719853	     12.87010392	      7.15110813	    -11.99711514	    -26.20429416	     23.75509858	      5.66896817	      0.00000000	     -4.02796676	     -7.57181062	      2.50648933	    -62.12885915	     -7.70390501	      5.32220698	      0.00000000	    -25.30043208	     12.89138141	    -18.17719803
      5.11000000	      8.85566717	     -5.62687462	     10.04888091	     -0.37588611	      0.89475368	      0.18679459	     11.28289802	      7.44302150	    -12.48147358	    -24.94251272	     24.34738545	      6.10642107	      0.00000000	     -1.25161601	     -7.47377787	      3.29068954	    -64.60938799	     -5.15095585	      6.25066968	      0.00000000	    -24.85115088	     13.00824972	    -18.08394581
      5.12000000	      8.69837914	     -5.51881526	     10.37337783	     -0.36135878	      0.89825862	      0.18650504	      9.59208762	      7.57077395	    -12.72952850	    -23.51121378	     24.72240431	      6.35507106	      0.00000000	      1.36168253	     -7.06946751	      3.86651940	    -66.53445908	     -2.59627857	      7.03176537	      0.00000000	    -24.42535326	     12.81044080	    -17.91913505
      5.13000000	      8.52456908	     -5.16946433	     10.54264798	     -0.34684188	      0.90203336	      0.18637167	      7.80226804	      7.52205076	    -12.66744993	    -21.94437310	     24.91955296	      6.42596451	      0.00000000	      3.77077229	     -6.36676218	      4.18506938	    -67.90227627	     -0.22412875	      7.64513079	      0.00000000	    -24.05589935	     12.28460593	    -17.71834847
      5.14000000	      8.20599840	     -4.76030069	     10.46437241	     -0.33222447	      0.90570028	      0.18653776	      6.08735495	      7.46651396	    -12.18876324	    -20.24109761	     24.87528117	      6.20327267	      0.00000000	      6.13837968	     -5.60464787	      4.12452376	    -68.78275573	      1.90150462	      8.01094818	      0.00000000	    -23.56785054	     11.58945572	    -17.27517954
      5.15000000	      7.90313136	     -4.19872774	     10.20042049	     -0.31757193	      0.90938903	      0.18692079	      4.26954978	      7.30029809	    -11.34194525	    -18.41968331	     24.65479331	      5.69809983	      0.00000000	      8.26900816	     -4.71721738	      3.76601036	    -69.16057449	      3.67639264	      8.18855999	      0.00000000	    -23.17459776	     10.66855857	    -16.72218180
